HIERARCHY
ROOT Hips
{
  OFFSET -0.465117 89.5968 258.914
  CHANNELS 6 Xposition Yposition Zposition Zrotation Xrotation Yrotation
  JOINT Spine
  {
    OFFSET -0.000355721 21.3001 -0.016921
    CHANNELS 3 Zrotation Xrotation Yrotation
    JOINT LeftArm
    {
      OFFSET 13.5181 21.3012 0
      CHANNELS 3 Zrotation Xrotation Yrotation
      JOINT LeftForeArm
      {
        OFFSET 24.5783 0 0
        CHANNELS 3 Zrotation Xrotation Yrotation
        JOINT LeftHand
        {
          OFFSET 24.5783 0 0
          CHANNELS 3 Zrotation Xrotation Yrotation
          End Site
          {
            OFFSET 7.32568 1.52588e-05 0.0169305
          }
        }
      }
    }
    JOINT Head
    {
      OFFSET 0 27.4458 -0.00489235
      CHANNELS 3 Zrotation Xrotation Yrotation
      End Site
      {
        OFFSET 0 0 0
      }
    }
    JOINT RightArm
    {
      OFFSET -13.5174 21.3012 0
      CHANNELS 3 Zrotation Xrotation Yrotation
      JOINT RightForeArm
      {
        OFFSET -24.5783 0 0
        CHANNELS 3 Zrotation Xrotation Yrotation
        JOINT RightHand
        {
          OFFSET -24.5783 0 0
          CHANNELS 3 Zrotation Xrotation Yrotation
          End Site
          {
            OFFSET -7.32568 1.52588e-05 0.0169305
          }
        }
      }
    }
  }
  JOINT RightUpLeg
  {
    OFFSET -8.44614 -9.41038 0.835684
    CHANNELS 3 Zrotation Xrotation Yrotation
    JOINT RightLeg
    {
      OFFSET 0 -40.9639 0
      CHANNELS 3 Zrotation Xrotation Yrotation
      JOINT RightFoot
      {
        OFFSET 0 -40.9639 0
        CHANNELS 3 Zrotation Xrotation Yrotation
        End Site
        {
          OFFSET 0.50614 -9.67405 14.6709
        }
      }
    }
  }
  JOINT LeftUpLeg
  {
    OFFSET 8.44614 -9.41038 0.835684
    CHANNELS 3 Zrotation Xrotation Yrotation
    JOINT LeftLeg
    {
      OFFSET 0 -40.9639 0
      CHANNELS 3 Zrotation Xrotation Yrotation
      JOINT LeftFoot
      {
        OFFSET 0 -40.9639 0
        CHANNELS 3 Zrotation Xrotation Yrotation
        End Site
        {
          OFFSET -0.50614 -9.67405 14.6709
        }
      }
    }
  }
}
MOTION
Frames:	18
Frame Time:	0.0333333
-0.463439 89.5951 -1.46172 4.55713 0.657694 -0.0319233 -3.21428 5.01039 -0.435566 -48.6498 57.8032 -13.273 -0.00250559 2.28385e-05 -47.7571 4.18373 -41.499 -7.68747 -1.01976 -9.95082 2.64449 70.155 33.7569 8.1123 -9.98179e-05 -5.23968e-06 13.1424 5.09643 -22.5592 -10.9463 -10.5701 -26.0493 -19.1756 -22.9352 62.2334 16.5155 0.13299 -37.9454 -0.558453 -4.75812 -10.456 29.0647 9.0408 28.6786 -13.8664 -6.64304 -50.5011 -4.62009 
-0.669333 89.8213 2.86991 4.30872 1.17772 0.800423 -2.89793 5.0722 -0.952545 -47.1936 56.6306 -14.3445 -0.00250412 2.11102e-05 -51.5815 7.37938 -37.9775 -7.28992 -0.887993 -11.1256 0.311228 70.2815 35.0169 8.40518 -9.96859e-05 -5.2071e-06 14.5901 5.69205 -25.0018 -11.7457 -10.2312 -29.4565 -21.6816 -18.8518 55.4783 14.7252 0.431609 -39.2245 -0.478086 -4.59642 -6.19143 27.2761 6.84448 25.6066 -12.6707 -7.54838 -51.5296 -4.28762 
-0.877613 89.9564 7.20361 4.02625 1.74554 1.62668 -2.60066 5.07489 -1.37021 -45.7691 55.5209 -15.3422 -0.00250285 1.94031e-05 -55.1695 10.7986 -34.8543 -6.84827 -0.887494 -12.6635 -1.89486 70.493 36.1391 8.68664 -9.95519e-05 -5.17036e-06 16.0698 6.08853 -26.9771 -12.6501 -9.33058 -32.5152 -24.0556 -15.7655 47.6942 13.8465 1.28118 -40.4667 -0.301473 -4.53079 -1.49253 25.7737 4.94299 21.2443 -11.747 -9.36575 -51.7985 -4.26424 
-1.09625 89.8632 11.5264 3.71272 2.32957 2.44711 -2.32615 4.96354 -1.58512 -44.3604 54.5467 -16.3826 -0.00250194 1.80246e-05 -57.9558 14.2861 -32.7761 -6.41575 -1.0562 -14.4132 -3.66149 71.0919 36.7332 9.37484 -9.95851e-05 -5.17981e-06 15.7021 6.68491 -27.8074 -12.5491 -7.59975 -34.7559 -26.0388 -13.2745 37.9456 12.8029 2.87114 -41.7187 -0.036352 -4.84987 3.78524 25.0311 3.89637 15.1853 -11.0035 -11.4276 -51.3535 -4.8804 
-1.32621 89.4465 15.8189 3.38671 2.89808 3.25708 -2.08861 4.78566 -1.57966 -42.5959 53.8725 -17.5701 -0.00250129 1.69435e-05 -60.0827 15.7025 -31.5622 -6.56877 -1.11162 -15.9884 -4.18778 72.0699 35.9172 10.0128 -9.98835e-05 -5.25456e-06 12.4266 7.84463 -27.653 -11.0822 -5.33676 -36.0635 -27.7649 -11.3788 27.3809 10.5246 4.97535 -43.0074 0.196405 -5.46427 9.14354 25.4527 3.8576 8.48047 -10.4803 -13.8735 -49.8266 -6.5829 
-1.55911 88.797 20.0458 3.0444 3.40292 4.04036 -2.03942 4.69835 -1.41328 -40.6491 53.4193 -19.0839 -0.00250102 1.64686e-05 -61.0025 16.2889 -31.4078 -7.23398 -1.18468 -17.2281 -4.54009 72.6917 35.2262 10.9978 -0.000100185 -5.31209e-06 9.1532 9.12994 -27.4493 -10.0025 -4.64658 -36.9939 -29.171 -7.72803 20.2383 6.91517 5.31599 -44.3298 0.330715 -5.32876 12.4938 26.0244 4.36513 6.14964 -10.3592 -16.4098 -48.7582 -8.10014 
-1.78168 88.0565 24.2024 2.68256 3.79941 4.83949 -1.98482 4.66193 -1.21966 -38.7009 53.2372 -20.9852 -0.00250112 1.66459e-05 -60.6601 16.2557 -31.9137 -7.59358 -1.31846 -18.2346 -4.99865 72.8473 35.0268 11.627 -0.000100327 -5.33305e-06 7.62361 10.0682 -27.3423 -9.80044 -4.71624 -37.6222 -29.9631 -4.75049 17.3933 3.19618 4.49083 -45.1633 0.323685 -4.34648 13.8652 26.2267 5.34306 8.17318 -10.8378 -19.3179 -48.1165 -9.19328 
-1.99475 87.4446 28.2865 2.32611 4.06397 5.65976 -1.69152 4.60687 -1.087 -36.8476 53.522 -23.2878 -0.0025016 1.7474e-05 -59.045 15.3639 -32.7176 -7.30481 -1.37271 -19.0777 -5.57946 72.6454 35.1177 11.6014 -0.000100269 -5.32492e-06 8.2508 10.2223 -27.413 -10.5463 -4.75641 -38.9866 -29.9679 -5.21848 20.2146 1.01878 0.697322 -45.3088 -0.173122 -3.3652 14.9149 26.1692 6.73102 10.779 -11.3517 -20.924 -46.7086 -9.18931 
-2.19766 87.0017 32.3028 1.93544 4.14143 6.42385 -1.15349 4.47862 -1.11442 -35.3981 54.4297 -25.1992 -0.00250233 1.8631e-05 -56.7411 13.577 -33.7332 -6.62806 -1.34244 -19.7498 -6.15077 72.3356 34.6578 12.058 -0.000100232 -5.31946e-06 8.64641 10.2887 -26.9299 -10.6935 -4.38853 -39.6302 -28.7119 -7.08557 25.002 -0.380378 -4.4378 -43.5233 -0.77134 -2.21666 15.2168 26.1931 8.71221 14.8634 -12.0819 -20.8219 -44.265 -7.99316 
-2.37486 86.7652 36.2785 1.39168 3.96182 6.96237 -0.408241 4.35009 -1.24143 -34.9145 55.9543 -25.9793 -0.00250334 2.00818e-05 -53.7629 10.9885 -35.0252 -6.04482 -1.275 -20.053 -6.47905 72.0482 32.7691 12.4905 -0.000100157 -5.30738e-06 9.46377 10.7922 -24.818 -9.9573 -4.15424 -38.668 -26.857 -6.92703 29.1339 -2.10064 -7.30532 -40.1397 -0.762392 0.15923 14.994 26.3725 9.99692 21.7337 -13.0577 -19.2403 -40.1703 -7.21841 
-2.49424 86.7372 40.1498 0.548069 3.54856 7.17788 0.492634 4.34123 -1.31819 -35.6608 57.832 -25.4508 -0.00250472 2.18495e-05 -49.9719 7.70895 -36.3863 -5.59267 -0.956756 -19.8776 -6.3929 71.463 30.072 12.1433 -9.98682e-05 -5.25116e-06 12.5933 11.5514 -21.6286 -8.9041 -4.11267 -36.6802 -25.7408 -4.33359 32.2844 -3.82926 -7.27984 -36.9936 -0.36412 3.94258 11.7325 26.0769 11.7593 33.7595 -16.4474 -14.5436 -35.1505 -4.9275 
-2.54054 86.8149 43.9228 -0.580178 3.07273 7.1654 1.34049 4.4403 -1.27576 -37.0243 59.7679 -24.0698 -0.00250635 2.36523e-05 -45.8746 4.01519 -37.3978 -4.93852 -0.0446153 -19.484 -6.00211 70.0542 28.5386 12.3938 -9.95051e-05 -5.15665e-06 16.5892 12.1035 -20.1656 -7.46063 -3.61269 -34.3804 -25.2805 -1.91139 34.5821 -4.93553 -7.3471 -36.9579 -0.218312 7.62643 7.61471 24.7167 14.6532 47.0682 -20.4372 -9.072 -30.4531 -1.87323 
-2.54189 86.9389 47.734 -1.57559 2.7619 7.00265 1.81521 4.55839 -1.06063 -38.4623 61.6691 -22.4231 -0.00250803 2.52662e-05 -41.9492 0.412589 -37.8569 -4.1205 1.31134 -19.1618 -5.57783 67.523 29.2724 14.0419 -9.91492e-05 -5.03694e-06 20.5889 12.0771 -22.4012 -6.5037 -2.44453 -32.3845 -24.7863 -1.41157 36.6736 -5.2288 -6.69549 -39.2637 -0.292794 10.1562 2.18623 22.5228 19.894 58.8788 -26.591 -5.31798 -27.4 1.89464 
-2.56139 87.238 51.6702 -2.19344 2.67918 6.62988 1.82713 4.63368 -0.54762 -40.6273 63.1235 -19.7398 -0.00250915 2.62357e-05 -39.4413 -2.11421 -37.5941 -2.76503 2.36975 -18.9118 -5.16633 64.0732 31.4344 16.0023 -9.87224e-05 -4.85527e-06 25.5293 11.5187 -27.1394 -6.81862 -0.793503 -30.1687 -23.8068 -2.28628 37.7427 -4.99972 -5.41049 -42.1725 -0.401502 11.303 -4.24309 21.1017 28.3566 67.9166 -33.2044 -4.43735 -27.6563 2.39111 
-2.60805 87.7765 55.7311 -2.34006 2.73274 5.94048 1.50223 4.72639 0.241006 -45.0273 63.2091 -15.1518 -0.00250981 2.67579e-05 -38.034 -3.79941 -36.4089 -2.59549 2.76281 -18.4307 -4.5744 60.3793 33.4081 17.3437 -9.82462e-05 -4.59764e-06 31.2972 10.5877 -31.2618 -7.80494 0.773224 -27.4196 -22.2966 -3.19939 37.4814 -4.83638 -4.03425 -44.6679 -0.41993 11.9829 -10.1343 21.4095 36.0283 72.3903 -39.4508 -4.50256 -30.2252 2.00598 
-2.65253 88.4292 59.8652 -2.13911 2.79016 4.80989 1.06023 4.85009 1.15554 -52.4345 61.3854 -8.16104 -0.00251025 2.71024e-05 -37.0807 -3.8276 -35.0132 -4.03932 2.80307 -17.615 -3.73041 57.3043 34.2184 17.924 -9.78097e-05 -4.3021e-06 36.9123 9.46855 -32.6234 -9.0155 1.96131 -23.8334 -20.6264 -3.56536 35.9415 -4.61761 -2.90136 -46.6698 -0.370594 12.5506 -15.2077 23.245 37.5601 73.0749 -40.979 -4.95777 -33.2276 1.65184 
-2.66126 89.0376 64.0169 -1.78465 2.77874 3.51424 0.57057 4.93503 2.06036 -59.8129 58.1182 -1.30897 -0.00251094 2.76087e-05 -35.6403 -3.00541 -35.0071 -7.96717 2.91605 -16.6621 -2.82079 55.6047 33.8238 17.9403 -9.74878e-05 -4.04021e-06 41.333 8.66544 -31.9194 -9.80573 2.68657 -19.9056 -19.2219 -3.71137 33.9339 -4.2061 -2.36892 -48.3862 -0.372556 13.1028 -19.4077 25.545 32.372 70.9924 -37.2473 -5.17038 -35.3856 1.43536 
-2.61605 89.5135 68.1524 -1.42435 2.68181 2.24313 0.0892496 5.01233 2.73318 -64.9503 54.8666 3.46731 -0.00251176 2.81803e-05 -33.9509 -1.83568 -37.866 -13.0131 3.1644 -15.7019 -1.98513 55.3779 32.9292 17.848 -9.72953e-05 -3.86244e-06 44.1232 8.86464 -31.48 -8.94805 2.99554 -15.7223 -18.1892 -3.61779 31.6885 -3.63585 -2.5125 -49.9747 -0.50362 13.7604 -22.6969 27.3515 23.6992 66.7369 -30.4874 -3.92991 -36.5019 1.33445 
